<svg height="512pt" viewBox="0 0 512 512" width="512pt" xmlns="http://www.w3.org/2000/svg"><path d="m0 0v512h183l50-256-50-256zm0 0" fill="#ffebbe"/><g fill="#3c4047"><path d="m60 181h170v30h-170zm0 0"/><path d="m60 241h170v30h-170zm0 0"/><path d="m60 301h170v30h-170zm0 0"/><path d="m60 361h170v30h-170zm0 0"/></g><path d="m183 0h183v512h-183zm0 0" fill="#ffd87c"/><path d="m501.632812 197.425781c-43.800781-14.21875-89.433593-21.425781-135.632812-21.425781l-60 141.003906 60 194.996094 4.695312-1.777344c40.789063-13.445312 75.859376-38.925781 101.417969-73.683594 26.09375-35.484374 39.886719-77.589843 39.886719-121.761718v-113.988282zm0 0" fill="#3c4047"/><path d="m230.367188 197.425781-10.367188 3.363281v113.988282c0 44.171875 13.792969 86.273437 39.886719 121.761718 25.558593 34.757813 60.628906 60.238282 101.417969 73.683594l4.695312 1.777344v-336c-46.199219 0-91.832031 7.207031-135.632812 21.425781zm0 0" fill="#636c72"/><path d="m451.960938 316.964844c.011718-.742188.039062-1.480469.039062-2.222656v-69.140626l-12.082031-2.398437c-24.226563-4.800781-49.070313-7.203125-73.917969-7.203125l-40 120.964844zm0 0" fill="#5aecff"/><path d="m366 236c-24.847656 0-49.691406 2.402344-73.917969 7.207031l-12.082031 2.394531v69.140626c0 .742187.027344 1.480468.039062 2.222656l85.960938 40zm0 0" fill="#fff"/><path d="m366 316.964844-20 65.5 20 65.535156 6.835938-3.535156c48.171874-24.664063 78.320312-73.375 79.125-127.5zm0 0" fill="#199aff"/><path d="m280.039062 316.964844c.804688 54.125 30.953126 102.835937 79.125 127.5l6.835938 2.535156v-130.035156zm0 0" fill="#08e2ff"/><path d="m306 121h-123l-20 15 20 15h123zm0 0" fill="#292c32"/><path d="m60 121h123v30h-123zm0 0" fill="#3c4047"/></svg>