<svg id="color" height="512" viewBox="0 0 24 24" width="512" xmlns="http://www.w3.org/2000/svg"><path d="m22 19h-20v-12h20z" fill="#cfd8dc"/><path d="m23 20h-22c-.553 0-1-.448-1-1s.447-1 1-1h22c.553 0 1 .448 1 1s-.447 1-1 1z" fill="#90a4ae"/><path d="m20.56 9c-1.897 0-3.44-1.543-3.44-3.44v-4.81c0-.414.336-.75.75-.75h5.381c.413 0 .749.336.749.75v4.81c0 1.897-1.543 3.44-3.44 3.44z" fill="#4dd0e1"/><path d="m14.935 9c-2.031 0-3.685-1.653-3.685-3.685v-4.565c0-.414.336-.75.75-.75h5.869c.414 0 .75.336.75.75v4.565c0 2.032-1.653 3.685-3.684 3.685z" fill="#00bcd4"/><path d="m9.065 9c-2.031 0-3.684-1.653-3.684-3.685v-4.565c0-.414.336-.75.75-.75h5.869c.414 0 .75.336.75.75v4.565c0 2.032-1.653 3.685-3.685 3.685z" fill="#4dd0e1"/><path d="m3.44 9c-1.897 0-3.44-1.543-3.44-3.44v-4.81c0-.414.336-.75.75-.75h5.381c.414 0 .75.336.75.75v4.81c0 1.897-1.543 3.44-3.441 3.44z" fill="#00bcd4"/><path d="m12 7.541c-.674.886-1.739 1.459-2.935 1.459-1.16 0-2.196-.539-2.872-1.379-.628.837-1.628 1.379-2.753 1.379-.514 0-1.002-.113-1.44-.316v9.316h10z" fill="#b4bcc0"/><path d="m12 18h-10-1c-.553 0-1 .448-1 1s.447 1 1 1h11z" fill="#7d8f97"/><path d="m12 0h-5.869c.414 0 .75.336.75.75v4.81c0 .773-.256 1.486-.687 2.061.675.84 1.712 1.379 2.871 1.379 1.196 0 2.261-.573 2.935-1.459z" fill="#43b5c4"/><path d="m6.131 0h-5.381c-.414 0-.75.336-.75.75v4.81c0 1.383.82 2.578 2 3.124.438.203.926.316 1.44.316 1.125 0 2.125-.542 2.753-1.379.432-.575.688-1.289.688-2.061v-4.81c0-.414-.336-.75-.75-.75z" fill="#00a4b9"/><path d="m19.25 24c-.474 0-.916-.186-1.247-.523l-4.197-4.032c-.526-.533-.806-1.219-.806-1.945v-3.25c0-.689.561-1.25 1.25-1.25h3.25c.728 0 1.413.281 1.93.792l4.063 4.227c.321.316.507.759.507 1.231 0 .467-.182.907-.513 1.237l-3 3c-.329.331-.769.513-1.237.513z" fill="#00bcd4"/><path d="m13.366 13.366c-.226.227-.366.539-.366.884v3.25c0 .726.28 1.412.806 1.945l4.197 4.032c.331.337.773.523 1.247.523.468 0 .908-.182 1.237-.513l1.5-1.5z" fill="#00a4b9"/></svg>