<svg enable-background="new 0 0 24 24" height="512" viewBox="0 0 24 24" width="512" xmlns="http://www.w3.org/2000/svg"><path d="m14.077 16.79c-.065-.224-.231-.404-.448-.489l-3.857-1.5c-.23-.09-.49-.061-.695.08-.205.14-.327.371-.327.619v6.75c0 .324.209.611.516.713l.234.037c.234 0 .461-.11.604-.306l3.856-5.25c.14-.188.183-.429.117-.654z" fill="#2196f3"/><path d="m23.686.139c-.23-.163-.533-.185-.783-.054l-22.5 11.75c-.266.139-.423.423-.4.722.023.3.222.556.506.653l19.75 6.75.241.04c.137 0 .271-.037.391-.109.189-.116.318-.311.352-.53l2.75-18.5c.04-.28-.079-.558-.307-.722z" fill="#64b5f6"/><path d="m23.249 0c-.119 0-.238.028-.347.085l-22.5 11.75c-.266.139-.423.423-.4.722.023.3.222.556.506.653l7.631 2.608 15.62-15.62c-.023-.021-.047-.041-.073-.06-.13-.091-.283-.138-.437-.138z" fill="#579ed6"/></svg>